<svg width="189" height="48" viewBox="0 0 189 48" fill="none" xmlns="http://www.w3.org/2000/svg">
<path d="M43.8047 18.8086V45H38.2852V18.8086H43.8047ZM47.373 23.3789V18.8086H68.8711V23.3789H60.8906V45H55.3711V23.3789H47.373Z" fill="#FF004D"/>
<path d="M80.8242 45V18.8086H98.1562V23.3789H86.3438V30.5684H96.9961V35.0508H86.3438V45H80.8242ZM101.777 45V25.3477H107.051V28.793H107.262C107.613 27.5742 108.211 26.6543 109.055 26.0332C109.898 25.4004 110.871 25.084 111.973 25.084C112.242 25.084 112.535 25.1016 112.852 25.1367C113.168 25.1719 113.443 25.2188 113.678 25.2773V30.0938C113.42 30.0117 113.062 29.9473 112.605 29.9004C112.16 29.8418 111.75 29.8125 111.375 29.8125C110.18 29.8125 109.189 30.1934 108.404 30.9551C107.619 31.7051 107.227 32.6836 107.227 33.8906V45H101.777ZM116.508 45V25.3477H121.957V45H116.508ZM119.232 22.834C118.424 22.834 117.727 22.5645 117.141 22.0254C116.566 21.4863 116.279 20.8359 116.279 20.0742C116.279 19.3125 116.566 18.668 117.141 18.1406C117.727 17.6016 118.424 17.332 119.232 17.332C120.041 17.332 120.732 17.6016 121.307 18.1406C121.893 18.668 122.186 19.3125 122.186 20.0742C122.186 20.8359 121.893 21.4863 121.307 22.0254C120.732 22.5645 120.041 22.834 119.232 22.834ZM142.629 30.9551L137.672 31.2539C137.531 30.6328 137.18 30.0996 136.617 29.6543C136.066 29.1973 135.316 28.9688 134.367 28.9688C133.523 28.9688 132.814 29.1445 132.24 29.4961C131.666 29.8477 131.379 30.3164 131.379 30.9023C131.379 31.3711 131.566 31.7695 131.941 32.0977C132.316 32.4258 132.955 32.6895 133.857 32.8887L137.426 33.5918C141.199 34.3418 143.086 36.1113 143.086 38.9004C143.086 40.2012 142.711 41.3379 141.961 42.3105C141.211 43.2832 140.18 44.0391 138.867 44.5781C137.555 45.1172 136.049 45.3867 134.35 45.3867C131.748 45.3867 129.68 44.8477 128.145 43.7695C126.609 42.6797 125.707 41.1973 125.438 39.3223L130.781 39.041C131.145 40.6582 132.34 41.4668 134.367 41.4668C135.316 41.4668 136.084 41.2793 136.67 40.9043C137.256 40.5293 137.549 40.0547 137.549 39.4805C137.549 38.5078 136.711 37.8516 135.035 37.5117L131.643 36.8086C127.857 36.0469 125.965 34.1836 125.965 31.2188C125.965 29.3203 126.721 27.8262 128.232 26.7363C129.756 25.6465 131.771 25.1016 134.279 25.1016C136.764 25.1016 138.721 25.6289 140.15 26.6836C141.58 27.7266 142.406 29.1504 142.629 30.9551ZM162.844 30.9551L157.887 31.2539C157.746 30.6328 157.395 30.0996 156.832 29.6543C156.281 29.1973 155.531 28.9688 154.582 28.9688C153.738 28.9688 153.029 29.1445 152.455 29.4961C151.881 29.8477 151.594 30.3164 151.594 30.9023C151.594 31.3711 151.781 31.7695 152.156 32.0977C152.531 32.4258 153.17 32.6895 154.072 32.8887L157.641 33.5918C161.414 34.3418 163.301 36.1113 163.301 38.9004C163.301 40.2012 162.926 41.3379 162.176 42.3105C161.426 43.2832 160.395 44.0391 159.082 44.5781C157.77 45.1172 156.264 45.3867 154.564 45.3867C151.963 45.3867 149.895 44.8477 148.359 43.7695C146.824 42.6797 145.922 41.1973 145.652 39.3223L150.996 39.041C151.359 40.6582 152.555 41.4668 154.582 41.4668C155.531 41.4668 156.299 41.2793 156.885 40.9043C157.471 40.5293 157.764 40.0547 157.764 39.4805C157.764 38.5078 156.926 37.8516 155.25 37.5117L151.857 36.8086C148.072 36.0469 146.18 34.1836 146.18 31.2188C146.18 29.3203 146.936 27.8262 148.447 26.7363C149.971 25.6465 151.986 25.1016 154.494 25.1016C156.979 25.1016 158.936 25.6289 160.365 26.6836C161.795 27.7266 162.621 29.1504 162.844 30.9551ZM175.605 45.3867C173.625 45.3867 171.908 44.9648 170.455 44.1211C169.014 43.2656 167.9 42.082 167.115 40.5703C166.342 39.0469 165.955 37.2773 165.955 35.2617C165.955 33.2344 166.342 31.459 167.115 29.9355C167.9 28.4121 169.014 27.2285 170.455 26.3848C171.908 25.5293 173.625 25.1016 175.605 25.1016C177.598 25.1016 179.314 25.5293 180.756 26.3848C182.209 27.2285 183.322 28.4121 184.096 29.9355C184.881 31.459 185.273 33.2344 185.273 35.2617C185.273 37.2773 184.881 39.0469 184.096 40.5703C183.322 42.082 182.209 43.2656 180.756 44.1211C179.314 44.9648 177.598 45.3867 175.605 45.3867ZM171.492 35.2266C171.492 36.9375 171.838 38.3496 172.529 39.4629C173.221 40.5762 174.252 41.1328 175.623 41.1328C176.982 41.1328 178.008 40.5762 178.699 39.4629C179.391 38.3496 179.736 36.9375 179.736 35.2266C179.736 33.5156 179.391 32.1094 178.699 31.0078C178.008 29.9062 176.982 29.3555 175.623 29.3555C174.252 29.3555 173.221 29.9062 172.529 31.0078C171.838 32.1094 171.492 33.5156 171.492 35.2266Z" fill="#1D2B53"/>
<g filter="url(#filter0_n_18_9)">
<path fill-rule="evenodd" clip-rule="evenodd" d="M14.0424 23.9852V16.9016V11.0789C14.0424 10.2524 13.7165 9.45993 13.137 8.87789L10.5477 6.27778L5.21607 0.907588C3.28634 -1.03605 0 0.348642 0 3.10534V30.6904C0 33.4481 3.28847 34.8324 5.21764 32.8865L14.0424 23.9852ZM14.0424 23.9852V31.1058V36.9878C14.0424 37.812 14.3667 38.6024 14.9432 39.1839L22.7824 47.0909C24.7115 49.0366 28 47.6525 28 44.8946V17.3169C28 14.5592 24.7115 13.175 22.7824 15.1207L14.0424 23.9361V23.9852Z" fill="#1D2B53"/>
<path d="M23.1377 15.4727C24.7428 13.854 27.5 14.9924 27.5 17.3174V44.8945C27.5 47.147 24.9121 48.2857 23.291 46.8828L23.1377 46.7393L15.2979 38.832C14.8149 38.3449 14.542 37.6806 14.542 36.9873V24.1416L23.1377 15.4727ZM0.507812 2.89062C0.665929 0.782987 3.13805 -0.2394 4.70703 1.11621L4.86133 1.25977L10.1934 6.62988V6.63086L12.7822 9.23047C13.2678 9.71812 13.542 10.3838 13.542 11.0791V23.7793L4.8623 32.5342C3.25718 34.1532 0.500016 33.0154 0.5 30.6904V3.10547L0.507812 2.89062Z" stroke="#FF004D"/>
</g>
<defs>
<filter id="filter0_n_18_9" x="0" y="0" width="28" height="48" filterUnits="userSpaceOnUse" color-interpolation-filters="sRGB">
<feFlood flood-opacity="0" result="BackgroundImageFix"/>
<feBlend mode="normal" in="SourceGraphic" in2="BackgroundImageFix" result="shape"/>
<feTurbulence type="fractalNoise" baseFrequency="0.25 0.25" stitchTiles="stitch" numOctaves="3" result="noise" seed="6801" />
<feColorMatrix in="noise" type="luminanceToAlpha" result="alphaNoise" />
<feComponentTransfer in="alphaNoise" result="coloredNoise1">
<feFuncA type="discrete" tableValues="1 1 1 1 1 1 1 1 1 1 1 1 1 1 1 1 1 1 1 1 1 1 1 1 1 1 1 1 1 1 1 1 1 1 1 1 1 1 1 1 1 1 1 1 1 1 1 1 1 1 1 0 0 0 0 0 0 0 0 0 0 0 0 0 0 0 0 0 0 0 0 0 0 0 0 0 0 0 0 0 0 0 0 0 0 0 0 0 0 0 0 0 0 0 0 0 0 0 0 0 "/>
</feComponentTransfer>
<feComposite operator="in" in2="shape" in="coloredNoise1" result="noise1Clipped" />
<feFlood flood-color="rgba(0, 0, 0, 0.25)" result="color1Flood" />
<feComposite operator="in" in2="noise1Clipped" in="color1Flood" result="color1" />
<feMerge result="effect1_noise_18_9">
<feMergeNode in="shape" />
<feMergeNode in="color1" />
</feMerge>
</filter>
</defs>
</svg>
